<svg width="261" height="174" viewBox="0 0 261 174" fill="none" xmlns="http://www.w3.org/2000/svg">
<g opacity="0.1">
<circle cx="84" cy="3" r="3" fill="white"/>
<circle cx="3" cy="3" r="3" fill="white"/>
<circle cx="96" cy="10" r="3" fill="white"/>
<circle cx="101" cy="18" r="3" fill="white"/>
<circle cx="105" cy="26" r="3" fill="white"/>
<circle cx="100" cy="34" r="3" fill="white"/>
<circle cx="105" cy="41" r="3" fill="white"/>
<circle cx="100" cy="49" r="3" fill="white"/>
<circle cx="105" cy="57" r="3" fill="white"/>
<circle cx="118" cy="65" r="3" fill="white"/>
<circle cx="132" cy="73" r="3" fill="white"/>
<circle cx="137" cy="80" r="3" fill="white"/>
<circle cx="141" cy="88" r="3" fill="white"/>
<circle cx="155" cy="95" r="3" fill="white"/>
<circle cx="159" cy="103" r="3" fill="white"/>
<circle cx="182" cy="110" r="3" fill="white"/>
<circle cx="209" cy="126" r="3" fill="white"/>
<circle cx="222" cy="133" r="3" fill="white"/>
<circle cx="218" cy="141" r="3" fill="white"/>
<circle cx="213" cy="150" r="3" fill="white"/>
<circle cx="217" cy="157" r="3" fill="white"/>
<circle cx="213" cy="164" r="3" fill="white"/>
<circle cx="217" cy="171" r="3" fill="white"/>
<circle cx="105" cy="10" r="3" fill="white"/>
<circle cx="93" cy="3" r="3" fill="white"/>
<circle cx="114" cy="10" r="3" fill="white"/>
<circle cx="110" cy="18" r="3" fill="white"/>
<circle cx="114" cy="26" r="3" fill="white"/>
<circle cx="109" cy="34" r="3" fill="white"/>
<circle cx="114" cy="41" r="3" fill="white"/>
<circle cx="109" cy="49" r="3" fill="white"/>
<circle cx="114" cy="57" r="3" fill="white"/>
<circle cx="127" cy="65" r="3" fill="white"/>
<circle cx="123" cy="73" r="3" fill="white"/>
<circle cx="128" cy="80" r="3" fill="white"/>
<circle cx="132" cy="88" r="3" fill="white"/>
<circle cx="146" cy="95" r="3" fill="white"/>
<circle cx="150" cy="103" r="3" fill="white"/>
<circle cx="173" cy="110" r="3" fill="white"/>
<circle cx="195" cy="118" r="3" fill="white"/>
<circle cx="200" cy="126" r="3" fill="white"/>
<circle cx="213" cy="133" r="3" fill="white"/>
<circle cx="209" cy="141" r="3" fill="white"/>
<circle cx="204" cy="150" r="3" fill="white"/>
<circle cx="208" cy="157" r="3" fill="white"/>
<circle cx="204" cy="164" r="3" fill="white"/>
<circle cx="208" cy="171" r="3" fill="white"/>
<circle cx="123" cy="10" r="3" fill="white"/>
<circle cx="102" cy="3" r="3" fill="white"/>
<circle cx="132" cy="10" r="3" fill="white"/>
<circle cx="119" cy="18" r="3" fill="white"/>
<circle cx="123" cy="26" r="3" fill="white"/>
<circle cx="118" cy="34" r="3" fill="white"/>
<circle cx="123" cy="41" r="3" fill="white"/>
<circle cx="118" cy="49" r="3" fill="white"/>
<circle cx="123" cy="57" r="3" fill="white"/>
<circle cx="136" cy="65" r="3" fill="white"/>
<circle cx="141" cy="73" r="3" fill="white"/>
<circle cx="146" cy="80" r="3" fill="white"/>
<circle cx="150" cy="88" r="3" fill="white"/>
<circle cx="164" cy="95" r="3" fill="white"/>
<circle cx="168" cy="103" r="3" fill="white"/>
<circle cx="191" cy="110" r="3" fill="white"/>
<circle cx="218" cy="126" r="3" fill="white"/>
<circle cx="231" cy="133" r="3" fill="white"/>
<circle cx="227" cy="141" r="3" fill="white"/>
<circle cx="222" cy="150" r="3" fill="white"/>
<circle cx="226" cy="157" r="3" fill="white"/>
<circle cx="222" cy="164" r="3" fill="white"/>
<circle cx="226" cy="171" r="3" fill="white"/>
<circle cx="141" cy="10" r="3" fill="white"/>
<circle cx="111" cy="3" r="3" fill="white"/>
<circle cx="150" cy="10" r="3" fill="white"/>
<circle cx="128" cy="18" r="3" fill="white"/>
<circle cx="132" cy="26" r="3" fill="white"/>
<circle cx="127" cy="34" r="3" fill="white"/>
<circle cx="132" cy="41" r="3" fill="white"/>
<circle cx="127" cy="49" r="3" fill="white"/>
<circle cx="132" cy="57" r="3" fill="white"/>
<circle cx="145" cy="65" r="3" fill="white"/>
<circle cx="150" cy="73" r="3" fill="white"/>
<circle cx="155" cy="80" r="3" fill="white"/>
<circle cx="159" cy="88" r="3" fill="white"/>
<circle cx="177" cy="103" r="3" fill="white"/>
<circle cx="200" cy="110" r="3" fill="white"/>
<circle cx="222" cy="118" r="3" fill="white"/>
<circle cx="227" cy="126" r="3" fill="white"/>
<circle cx="240" cy="133" r="3" fill="white"/>
<circle cx="236" cy="141" r="3" fill="white"/>
<circle cx="231" cy="150" r="3" fill="white"/>
<circle cx="235" cy="157" r="3" fill="white"/>
<circle cx="231" cy="164" r="3" fill="white"/>
<circle cx="235" cy="171" r="3" fill="white"/>
<circle cx="159" cy="10" r="3" fill="white"/>
<circle cx="120" cy="3" r="3" fill="white"/>
<circle cx="168" cy="10" r="3" fill="white"/>
<circle cx="137" cy="18" r="3" fill="white"/>
<circle cx="141" cy="26" r="3" fill="white"/>
<circle cx="136" cy="34" r="3" fill="white"/>
<circle cx="141" cy="41" r="3" fill="white"/>
<circle cx="136" cy="49" r="3" fill="white"/>
<circle cx="141" cy="57" r="3" fill="white"/>
<circle cx="154" cy="65" r="3" fill="white"/>
<circle cx="159" cy="73" r="3" fill="white"/>
<circle cx="164" cy="80" r="3" fill="white"/>
<circle cx="182" cy="95" r="3" fill="white"/>
<circle cx="186" cy="103" r="3" fill="white"/>
<circle cx="231" cy="118" r="3" fill="white"/>
<circle cx="236" cy="126" r="3" fill="white"/>
<circle cx="249" cy="133" r="3" fill="white"/>
<circle cx="245" cy="141" r="3" fill="white"/>
<circle cx="240" cy="150" r="3" fill="white"/>
<circle cx="244" cy="157" r="3" fill="white"/>
<circle cx="240" cy="164" r="3" fill="white"/>
<circle cx="244" cy="171" r="3" fill="white"/>
<circle cx="177" cy="10" r="3" fill="white"/>
<circle cx="129" cy="3" r="3" fill="white"/>
<circle cx="186" cy="10" r="3" fill="white"/>
<circle cx="146" cy="18" r="3" fill="white"/>
<circle cx="150" cy="26" r="3" fill="white"/>
<circle cx="145" cy="34" r="3" fill="white"/>
<circle cx="150" cy="41" r="3" fill="white"/>
<circle cx="145" cy="49" r="3" fill="white"/>
<circle cx="150" cy="57" r="3" fill="white"/>
<circle cx="163" cy="65" r="3" fill="white"/>
<circle cx="168" cy="73" r="3" fill="white"/>
<circle cx="173" cy="80" r="3" fill="white"/>
<circle cx="191" cy="95" r="3" fill="white"/>
<circle cx="240" cy="118" r="3" fill="white"/>
<circle cx="245" cy="126" r="3" fill="white"/>
<circle cx="254" cy="141" r="3" fill="white"/>
<circle cx="249" cy="150" r="3" fill="white"/>
<circle cx="253" cy="157" r="3" fill="white"/>
<circle cx="249" cy="164" r="3" fill="white"/>
<circle cx="195" cy="10" r="3" fill="white"/>
<circle cx="138" cy="3" r="3" fill="white"/>
<circle cx="204" cy="10" r="3" fill="white"/>
<circle cx="155" cy="18" r="3" fill="white"/>
<circle cx="159" cy="26" r="3" fill="white"/>
<circle cx="154" cy="34" r="3" fill="white"/>
<circle cx="159" cy="41" r="3" fill="white"/>
<circle cx="154" cy="49" r="3" fill="white"/>
<circle cx="159" cy="57" r="3" fill="white"/>
<circle cx="172" cy="65" r="3" fill="white"/>
<circle cx="177" cy="73" r="3" fill="white"/>
<circle cx="249" cy="118" r="3" fill="white"/>
<circle cx="254" cy="126" r="3" fill="white"/>
<circle cx="213" cy="10" r="3" fill="white"/>
<circle cx="147" cy="3" r="3" fill="white"/>
<circle cx="222" cy="10" r="3" fill="white"/>
<circle cx="164" cy="18" r="3" fill="white"/>
<circle cx="168" cy="26" r="3" fill="white"/>
<circle cx="163" cy="34" r="3" fill="white"/>
<circle cx="168" cy="41" r="3" fill="white"/>
<circle cx="163" cy="49" r="3" fill="white"/>
<circle cx="168" cy="57" r="3" fill="white"/>
<circle cx="181" cy="65" r="3" fill="white"/>
<circle cx="186" cy="73" r="3" fill="white"/>
<circle cx="209" cy="95" r="3" fill="white"/>
<circle cx="213" cy="103" r="3" fill="white"/>
<circle cx="231" cy="10" r="3" fill="white"/>
<circle cx="156" cy="3" r="3" fill="white"/>
<circle cx="240" cy="10" r="3" fill="white"/>
<circle cx="173" cy="18" r="3" fill="white"/>
<circle cx="177" cy="26" r="3" fill="white"/>
<circle cx="172" cy="34" r="3" fill="white"/>
<circle cx="177" cy="41" r="3" fill="white"/>
<circle cx="172" cy="49" r="3" fill="white"/>
<circle cx="177" cy="57" r="3" fill="white"/>
<circle cx="190" cy="65" r="3" fill="white"/>
<circle cx="195" cy="73" r="3" fill="white"/>
<circle cx="200" cy="80" r="3" fill="white"/>
<circle cx="204" cy="88" r="3" fill="white"/>
<circle cx="218" cy="95" r="3" fill="white"/>
<circle cx="222" cy="103" r="3" fill="white"/>
<circle cx="258" cy="10" r="3" fill="white"/>
<circle cx="165" cy="3" r="3" fill="white"/>
<circle cx="249" cy="10" r="3" fill="white"/>
<circle cx="182" cy="18" r="3" fill="white"/>
<circle cx="186" cy="26" r="3" fill="white"/>
<circle cx="181" cy="34" r="3" fill="white"/>
<circle cx="186" cy="41" r="3" fill="white"/>
<circle cx="181" cy="49" r="3" fill="white"/>
<circle cx="186" cy="57" r="3" fill="white"/>
<circle cx="199" cy="65" r="3" fill="white"/>
<circle cx="204" cy="73" r="3" fill="white"/>
<circle cx="209" cy="80" r="3" fill="white"/>
<circle cx="213" cy="88" r="3" fill="white"/>
<circle cx="227" cy="95" r="3" fill="white"/>
<circle cx="231" cy="103" r="3" fill="white"/>
<circle cx="254" cy="110" r="3" fill="white"/>
<circle cx="174" cy="3" r="3" fill="white"/>
<circle cx="191" cy="18" r="3" fill="white"/>
<circle cx="195" cy="26" r="3" fill="white"/>
<circle cx="190" cy="34" r="3" fill="white"/>
<circle cx="195" cy="41" r="3" fill="white"/>
<circle cx="190" cy="49" r="3" fill="white"/>
<circle cx="195" cy="57" r="3" fill="white"/>
<circle cx="208" cy="65" r="3" fill="white"/>
<circle cx="213" cy="73" r="3" fill="white"/>
<circle cx="240" cy="103" r="3" fill="white"/>
<circle cx="183" cy="3" r="3" fill="white"/>
<circle cx="200" cy="18" r="3" fill="white"/>
<circle cx="204" cy="26" r="3" fill="white"/>
<circle cx="199" cy="34" r="3" fill="white"/>
<circle cx="204" cy="41" r="3" fill="white"/>
<circle cx="199" cy="49" r="3" fill="white"/>
<circle cx="204" cy="57" r="3" fill="white"/>
<circle cx="249" cy="103" r="3" fill="white"/>
<circle cx="192" cy="3" r="3" fill="white"/>
<circle cx="209" cy="18" r="3" fill="white"/>
<circle cx="213" cy="26" r="3" fill="white"/>
<circle cx="208" cy="34" r="3" fill="white"/>
<circle cx="213" cy="41" r="3" fill="white"/>
<circle cx="208" cy="49" r="3" fill="white"/>
<circle cx="213" cy="57" r="3" fill="white"/>
<circle cx="201" cy="3" r="3" fill="white"/>
<circle cx="218" cy="18" r="3" fill="white"/>
<circle cx="222" cy="26" r="3" fill="white"/>
<circle cx="217" cy="34" r="3" fill="white"/>
<circle cx="222" cy="41" r="3" fill="white"/>
<circle cx="217" cy="49" r="3" fill="white"/>
<circle cx="210" cy="3" r="3" fill="white"/>
<circle cx="227" cy="18" r="3" fill="white"/>
<circle cx="231" cy="26" r="3" fill="white"/>
<circle cx="226" cy="34" r="3" fill="white"/>
<circle cx="231" cy="41" r="3" fill="white"/>
<circle cx="219" cy="3" r="3" fill="white"/>
<circle cx="236" cy="18" r="3" fill="white"/>
<circle cx="240" cy="26" r="3" fill="white"/>
<circle cx="235" cy="34" r="3" fill="white"/>
<circle cx="228" cy="3" r="3" fill="white"/>
<circle cx="245" cy="18" r="3" fill="white"/>
<circle cx="249" cy="26" r="3" fill="white"/>
<circle cx="244" cy="34" r="3" fill="white"/>
<circle cx="246" cy="3" r="3" fill="white"/>
<circle cx="237" cy="3" r="3" fill="white"/>
<circle cx="255" cy="3" r="3" fill="white"/>
</g>
</svg>
